<svg width="15" height="15" viewBox="0 0 15 15" fill="none" xmlns="http://www.w3.org/2000/svg">
    <g>
        <path d="M5.11364 0H4.43183C4.24339 0 4.09091 0.152482 4.09091 0.34092V4.09091H0.34092C0.152482 4.09091 0 4.24339 0 4.43183V5.11364C0 5.30208 0.152482 5.45456 0.34092 5.45456H5.11364C5.30208 5.45456 5.45456 5.30208 5.45456 5.11364V0.34092C5.45456 0.152482 5.30208 0 5.11364 0Z"/>
        <path d="M14.6591 4.09091H10.9091V0.34092C10.9091 0.152482 10.7566 0 10.5682 0H9.88639C9.69795 0 9.54547 0.152482 9.54547 0.34092V5.11364C9.54547 5.30208 9.69795 5.45456 9.88639 5.45456H14.6591C14.8475 5.45456 15 5.30208 15 5.11364V4.43183C15 4.24339 14.8475 4.09091 14.6591 4.09091Z"/>
        <path d="M14.6591 9.54547H9.88633C9.69789 9.54547 9.54541 9.69795 9.54541 9.88639V14.6591C9.54541 14.8475 9.69789 15 9.88633 15H10.5681C10.7566 15 10.9091 14.8475 10.9091 14.6591V10.9091H14.659C14.8475 10.9091 14.9999 10.7566 14.9999 10.5682V9.88636C14.9999 9.69792 14.8475 9.54547 14.6591 9.54547Z"/>
        <path d="M5.11364 9.54547H0.34092C0.152482 9.54547 0 9.69792 0 9.88636V10.5682C0 10.7566 0.152482 10.9091 0.34092 10.9091H4.09091V14.6591C4.09091 14.8475 4.24339 15 4.43183 15H5.11364C5.30208 15 5.45456 14.8475 5.45456 14.6591V9.88636C5.45456 9.69792 5.30208 9.54547 5.11364 9.54547Z"/>
    </g>
</svg>