<svg width="22" height="22" viewBox="0 0 22 22" fill="none" xmlns="http://www.w3.org/2000/svg">
    <path d="M16.5 6.41667H11C10.4959 6.41667 10.0834 6.82917 10.0834 7.33333V11C10.0834 11.5042 10.4959 11.9167 11 11.9167H16.5C17.0042 11.9167 17.4167 11.5042 17.4167 11V7.33333C17.4167 6.82917 17.0042 6.41667 16.5 6.41667ZM19.25 2.75H2.75002C1.74169 2.75 0.916687 3.575 0.916687 4.58333V17.4167C0.916687 18.425 1.74169 19.2317 2.75002 19.2317H19.25C20.2584 19.2317 21.0834 18.425 21.0834 17.4167V4.58333C21.0834 3.575 20.2584 2.75 19.25 2.75ZM18.3334 17.4258H3.66669C3.16252 17.4258 2.75002 17.0133 2.75002 16.5092V5.48167C2.75002 4.9775 3.16252 4.565 3.66669 4.565H18.3334C18.8375 4.565 19.25 4.9775 19.25 5.48167V16.5092C19.25 17.0133 18.8375 17.4258 18.3334 17.4258V17.4258Z"/>
</svg>