<svg width="15" height="15" viewBox="0 0 15 15" fill="none" xmlns="http://www.w3.org/2000/svg">
    <path d="M0.624962 5.00004C0.970573 5.00004 1.25004 4.72057 1.25004 4.37496V1.875C1.25004 1.52996 1.52996 1.25004 1.875 1.25004H4.37496C4.72057 1.25004 5.00004 0.970573 5.00004 0.624962C5.00004 0.27935 4.72057 0 4.37496 0H1.875C0.841255 0 0 0.841255 0 1.875V4.37496C0 4.72057 0.27935 5.00004 0.624962 5.00004Z"/>
    <path d="M14.375 9.99994C14.0294 9.99994 13.75 10.2794 13.75 10.625V13.125C13.75 13.47 13.47 13.7499 13.125 13.7499H10.625C10.2794 13.7499 9.99997 14.0294 9.99997 14.375C9.99997 14.7206 10.2794 15 10.625 15H13.125C14.1588 15 15 14.1587 15 13.125V10.625C15 10.2794 14.7207 9.99994 14.375 9.99994Z" />
    <path d="M4.37496 13.7499H1.875C1.52996 13.7499 1.25004 13.47 1.25004 13.125V10.625C1.25004 10.2794 0.970573 9.99994 0.624962 9.99994C0.27935 9.99994 0 10.2794 0 10.625V13.125C0 14.1587 0.841255 15 1.875 15H4.37496C4.72057 15 5.00004 14.7206 5.00004 14.375C5.00004 14.0294 4.72057 13.7499 4.37496 13.7499Z" />
    <path d="M13.125 0H10.625C10.2794 0 9.99997 0.27935 9.99997 0.624962C9.99997 0.970573 10.2794 1.25004 10.625 1.25004H13.125C13.47 1.25004 13.75 1.52996 13.75 1.875V4.37496C13.75 4.72057 14.0294 5.00004 14.375 5.00004C14.7207 5.00004 15 4.72057 15 4.37496V1.875C15 0.841255 14.1588 0 13.125 0Z"/>
</svg>