<svg width="22" height="14" viewBox="0 0 22 14" fill="none" xmlns="http://www.w3.org/2000/svg">
    <path d="M5 3.77778H9.09091C9.59273 3.77778 10 3.37956 10 2.88889C10 2.39822 9.59273 2 9.09091 2H5C2.24318 2 0 4.19333 0 6.88889C0 9.58444 2.24318 11.7778 5 11.7778H6.89636L6.17546 12.4827C5.82046 12.8298 5.82046 13.3924 6.17546 13.7396C6.35318 13.9133 6.58545 14 6.81818 14C7.05091 14 7.28318 13.9133 7.46091 13.7396L9.73364 11.5173C10.0886 11.1702 10.0886 10.6076 9.73364 10.2604L7.46091 8.03822C7.10591 7.69111 6.53046 7.69111 6.17546 8.03822C5.82046 8.38533 5.82046 8.948 6.17546 9.29511L6.89636 10H5C3.24591 10 1.81818 8.604 1.81818 6.88889C1.81818 5.17333 3.24591 3.77778 5 3.77778Z" />
    <path d="M17 2.22213H15.1036L15.8245 1.51724C16.1795 1.17012 16.1795 0.60745 15.8245 0.260336C15.4695 -0.0867786 14.8941 -0.0867786 14.5391 0.260336L12.2664 2.48258C11.9114 2.82969 11.9114 3.39236 12.2664 3.73948L14.5391 5.96172C14.7168 6.1355 14.9491 6.22217 15.1818 6.22217C15.4145 6.22217 15.6468 6.1355 15.8245 5.96172C16.1795 5.61461 16.1795 5.05194 15.8245 4.70482L15.1036 3.99993H17C18.7541 3.99993 20.1818 5.39549 20.1818 7.11107C20.1818 8.82619 18.7541 10.2222 17 10.2222H12.9091C12.4073 10.2222 12 10.6204 12 11.1111C12 11.6018 12.4073 12 12.9091 12H17C19.7568 12 22 9.80665 22 7.11107C22 4.41548 19.7568 2.22213 17 2.22213Z" />
</svg>