<svg width="16" height="16" viewBox="0 0 16 16" fill="none" xmlns="http://www.w3.org/2000/svg">
    <path d="M0.244658 8.51593L7.578 14.5159C7.77666 14.6793 8.05266 14.7126 8.286 14.6026C8.518 14.4919 8.66666 14.2572 8.66666 13.9999L8.66666 9.40659L14.9113 14.5159C15.1107 14.6793 15.386 14.7126 15.6193 14.6026C15.8513 14.4919 16 14.2572 16 13.9999L16 1.99994C16 1.74259 15.8513 1.50794 15.6193 1.39728C15.528 1.35462 15.43 1.33328 15.3333 1.33328C15.182 1.33328 15.0327 1.38462 14.9113 1.48394L8.66669 6.59328L8.66669 1.99994C8.66669 1.74259 8.51803 1.50793 8.28603 1.39728C8.19469 1.35462 8.09669 1.33328 8.00003 1.33328C7.84869 1.33328 7.69938 1.38462 7.57803 1.48394L0.244689 7.48393C0.0900322 7.61059 3.30252e-05 7.79993 3.30078e-05 7.99993C3.29903e-05 8.19993 0.0900017 8.38925 0.244658 8.51593Z" />
</svg>