<svg width="16" height="16" viewBox="0 0 16 16" fill="none" xmlns="http://www.w3.org/2000/svg">
    <path d="M15.7553 7.48406L8.422 1.48406C8.22334 1.32072 7.94734 1.28741 7.714 1.39741C7.482 1.50806 7.33334 1.74275 7.33334 2.00006V6.59341L1.08866 1.48406C0.889313 1.32072 0.614 1.28741 0.380656 1.39741C0.148656 1.50806 0 1.74275 0 2.00006V14.0001C0 14.2574 0.148656 14.4921 0.380656 14.6027C0.472 14.6454 0.57 14.6667 0.666656 14.6667C0.818 14.6667 0.967313 14.6154 1.08866 14.5161L7.33331 9.40672V14.0001C7.33331 14.2574 7.48197 14.4921 7.71397 14.6027C7.80531 14.6454 7.90331 14.6667 7.99997 14.6667C8.15131 14.6667 8.30062 14.6154 8.42197 14.5161L15.7553 8.51606C15.91 8.38941 16 8.20006 16 8.00006C16 7.80006 15.91 7.61075 15.7553 7.48406Z" />
</svg>