<svg width="23" height="23" viewBox="0 0 23 23" fill="none" xmlns="http://www.w3.org/2000/svg">
    <g>
        <path d="M14.3202 0.0817612C14.0343 -0.0545902 13.6976 -0.0184489 13.4511 0.180328L5.46063 6.57241H1.64279C0.737611 6.57241 0 7.31003 0 8.2152V14.7864C0 15.6932 0.737611 16.4291 1.64279 16.4291H5.46063L13.4495 22.8212C13.599 22.9395 13.7813 23.0003 13.9637 23.0003C14.0853 23.0003 14.2068 22.9724 14.3202 22.9181C14.6044 22.7818 14.7851 22.4943 14.7851 22.1789V0.822658C14.7851 0.507243 14.6044 0.219755 14.3202 0.0817612Z"/>
        <path d="M19.7649 5.69158C19.4413 5.37287 18.9221 5.3778 18.6034 5.69815C18.2847 6.02178 18.288 6.5409 18.61 6.86124C19.852 8.08676 20.5353 9.73448 20.5353 11.5005C20.5353 13.2665 19.852 14.9142 18.61 16.1397C18.288 16.4568 18.2847 16.9775 18.6034 17.3012C18.7644 17.4638 18.9763 17.5443 19.1866 17.5443C19.3953 17.5443 19.6039 17.4654 19.7649 17.3061C21.3222 15.7734 22.1781 13.71 22.1781 11.5005C22.1781 9.29093 21.3222 7.22758 19.7649 5.69158Z"/>
    </g>
</svg>