<svg width="23" height="23" viewBox="0 0 23 23" fill="none" xmlns="http://www.w3.org/2000/svg">
    <g>
        <path d="M17.681 6.07854C17.3789 5.78107 16.8944 5.78567 16.5969 6.08467C16.2995 6.38674 16.3025 6.87127 16.6031 7.17027C17.7623 8.31414 18.4001 9.85207 18.4001 11.5004C18.4001 13.1487 17.7623 14.6867 16.6031 15.8305C16.3025 16.1265 16.2995 16.6125 16.5969 16.9146C16.7472 17.0664 16.945 17.1415 17.1413 17.1415C17.336 17.1415 17.5307 17.0679 17.681 16.9192C19.1346 15.4886 19.9335 13.5627 19.9335 11.5004C19.9335 9.43807 19.1346 7.5122 17.681 6.07854Z"/>
        <path d="M19.8443 3.91809C19.5423 3.61909 19.0577 3.62216 18.7587 3.92269C18.4613 4.22322 18.4643 4.70929 18.7633 5.00676C20.5067 6.73482 21.4666 9.04096 21.4666 11.5004C21.4666 13.9599 20.5067 16.2645 18.7633 17.9926C18.4643 18.2916 18.4613 18.7776 18.7587 19.0782C18.9105 19.2284 19.1068 19.3036 19.3031 19.3036C19.4978 19.3036 19.6941 19.23 19.8443 19.0812C21.8806 17.0649 22.9999 14.3724 22.9999 11.5004C22.9999 8.62849 21.8806 5.93596 19.8443 3.91809Z"/>
        <path d="M14.3202 0.0817612C14.0343 -0.0545902 13.6976 -0.0184489 13.4511 0.180328L5.46063 6.57241H1.64279C0.737611 6.57241 0 7.31003 0 8.2152V14.7864C0 15.6932 0.737611 16.4291 1.64279 16.4291H5.46063L13.4495 22.8212C13.599 22.9395 13.7813 23.0003 13.9637 23.0003C14.0853 23.0003 14.2068 22.9724 14.3202 22.9181C14.6044 22.7818 14.7851 22.4943 14.7851 22.1789V0.822658C14.7851 0.507243 14.6044 0.219755 14.3202 0.0817612Z"/>
    </g>
</svg>  