<svg width="23" height="23" viewBox="0 0 23 23" fill="none" xmlns="http://www.w3.org/2000/svg">
    <g>
        <path d="M14.7124 0.825546C14.7124 0.513455 14.5182 0.21779 14.2181 0.0863836C13.9004 -0.0614488 13.5473 -0.0121714 13.2825 0.184939L5.4624 5.98325L14.7124 14.5904V0.825546V0.825546Z"/>
        <path d="M19.4712 21.5972L1.71313 4C1.39283 3.6797 0.872133 3.6797 0.551829 4C0.231526 4.3203 0.231526 4.841 0.551829 5.16131L1.71319 6.5L1.64258 6.57421C1.13338 6.57421 0.689884 6.80417 0.394219 7.16554C0.147832 7.44478 0 7.82257 0 8.21679V14.7871C0 15.6905 0.739162 16.4297 1.64258 16.4297H5.45337L13.4527 22.8193C13.6006 22.9343 13.7813 23 13.9619 23C14.0769 23 14.2083 22.9672 14.3233 22.9179C14.6025 22.7865 14.7832 22.4908 14.7832 22.1787V19.2336L18.3082 22.7586C18.4692 22.9195 18.6794 23 18.8897 23C19.0999 23 19.3102 22.9195 19.4712 22.7602C19.7915 22.4382 19.7915 21.9192 19.4712 21.5972Z"/>
    </g>
</svg>